<svg xmlns="http://www.w3.org/2000/svg" width="128.773" height="18.861" viewBox="0 0 128.773 18.861">
  <path id="logo" d="M.579,12.922c.3,2.106,2.083,3.309,4.605,3.309,2.407,0,4.235-1.25,4.235-3.356,0-1.574-.949-2.569-2.754-3.009L4.536,9.381c-.648-.162-.926-.393-.926-.81,0-.648.671-.972,1.365-.972A1.511,1.511,0,0,1,6.6,8.617H9.327c-.347-1.944-1.782-3.194-4.4-3.194C2.615,5.424.81,6.766.81,8.779c0,1.736,1.111,2.546,2.685,2.916l2.083.463c.717.185,1.041.417,1.041.879,0,.671-.579,1.018-1.458,1.018a1.668,1.668,0,0,1-1.736-1.134Zm13.18-7.267h-2.87V16h2.87Zm.255-2.985a1.7,1.7,0,1,0-1.689,1.643A1.659,1.659,0,0,0,14.014,2.67ZM24.067,6.743A3.425,3.425,0,0,0,21.29,5.424a3.291,3.291,0,0,0-2.615,1.088V5.655h-2.87V16h2.87V9.335A1.621,1.621,0,0,1,20.3,7.993c1,0,1.458.741,1.458,1.851V16h2.893V9.335a1.6,1.6,0,0,1,1.6-1.342c1,0,1.481.741,1.481,1.851V16h2.87V9.242c0-2.337-1.273-3.819-3.4-3.819A4.031,4.031,0,0,0,24.067,6.743Zm11.321,8.4a3.562,3.562,0,0,0,2.592,1.088c3.009,0,4.721-2.476,4.721-5.392S40.989,5.424,37.98,5.424a3.562,3.562,0,0,0-2.592,1.088V5.655h-2.87V19.819h2.87Zm0-6.017a2.19,2.19,0,0,1,1.944-1.2c1.551,0,2.476,1.25,2.476,2.916,0,1.643-.926,2.893-2.476,2.893a2.175,2.175,0,0,1-1.944-1.2ZM46.926.957h-2.87V16h2.87Zm8.341,11.664a1.778,1.778,0,0,1-1.921,1.3c-1.273,0-2.152-.926-2.245-2.476H58v-.879c0-3.032-1.666-5.138-4.7-5.138-2.893,0-4.976,2.291-4.976,5.415,0,3.194,2.013,5.392,5.022,5.392,2.592,0,4.212-1.412,4.582-3.61Zm-1.944-4.86a1.81,1.81,0,0,1,1.851,1.944h-4A2.127,2.127,0,0,1,53.324,7.761Zm5.41,6.549a1.806,1.806,0,1,0,3.61,0,1.805,1.805,0,1,0-3.61,0Zm4.418-1.389c.3,2.106,2.083,3.309,4.605,3.309,2.407,0,4.235-1.25,4.235-3.356,0-1.574-.949-2.569-2.754-3.009l-2.129-.486c-.648-.162-.926-.393-.926-.81,0-.648.671-.972,1.365-.972a1.511,1.511,0,0,1,1.62,1.018H71.9c-.347-1.944-1.782-3.194-4.4-3.194-2.314,0-4.119,1.342-4.119,3.356,0,1.736,1.111,2.546,2.685,2.916l2.083.463c.717.185,1.041.417,1.041.879,0,.671-.579,1.018-1.458,1.018A1.668,1.668,0,0,1,66,12.922Zm9.663-2.083c0,3.194,2.037,5.392,4.976,5.392a4.211,4.211,0,0,0,4.536-3.726H79.5a1.6,1.6,0,0,1-1.713,1.273c-1.319,0-2.129-1.2-2.129-2.939,0-1.759.81-2.962,2.129-2.962A1.6,1.6,0,0,1,79.5,9.15h2.824a4.228,4.228,0,0,0-4.536-3.726C74.85,5.424,72.814,7.622,72.814,10.839ZM86.491,5.655h-2.87V16h2.87Zm.255-2.985a1.7,1.7,0,1,0-1.689,1.643A1.659,1.659,0,0,0,86.745,2.67Zm8.087,9.951a1.778,1.778,0,0,1-1.921,1.3c-1.273,0-2.152-.926-2.245-2.476h6.9v-.879c0-3.032-1.666-5.138-4.7-5.138-2.893,0-4.976,2.291-4.976,5.415,0,3.194,2.013,5.392,5.022,5.392,2.592,0,4.212-1.412,4.582-3.61Zm-1.944-4.86a1.81,1.81,0,0,1,1.851,1.944h-4A2.127,2.127,0,0,1,92.888,7.761ZM98.923,16h2.869V9.451a1.881,1.881,0,0,1,1.875-1.435,1.609,1.609,0,0,1,1.689,1.828V16h2.87V9.242c0-2.291-1.319-3.819-3.657-3.819a3.709,3.709,0,0,0-2.777,1.18V5.655H98.923ZM109.5,10.839c0,3.194,2.037,5.392,4.976,5.392a4.211,4.211,0,0,0,4.536-3.726h-2.824a1.6,1.6,0,0,1-1.712,1.273c-1.319,0-2.129-1.2-2.129-2.939,0-1.759.81-2.962,2.129-2.962a1.6,1.6,0,0,1,1.712,1.273h2.824a4.228,4.228,0,0,0-4.536-3.726C111.533,5.424,109.5,7.622,109.5,10.839Zm17.125,1.782a1.779,1.779,0,0,1-1.921,1.3c-1.273,0-2.152-.926-2.245-2.476h6.9v-.879c0-3.032-1.667-5.138-4.7-5.138-2.893,0-4.976,2.291-4.976,5.415,0,3.194,2.013,5.392,5.022,5.392,2.592,0,4.212-1.412,4.582-3.61Zm-1.944-4.86a1.81,1.81,0,0,1,1.851,1.944h-4A2.126,2.126,0,0,1,124.677,7.761Z" transform="translate(-0.579 -0.957)" fill="rgba(0,0,0,0.9)"/>
</svg>
